<svg version="1.1" xmlns="http://www.w3.org/2000/svg" viewBox="-3746.1071411558296 -7006.633292850105 14319.222074068415 14319.186280226282"><desc>Created with Snap</desc><defs></defs><g><rect x="-3746.1071411558296" y="-7006.633292850105" width="14319.222074068415" height="14319.186280226282" fill="#efd9ce" style=""></rect><g transform="matrix(34.4968,0,0,34.4968,-3485.8646,-6746.4083)">
<g id="gSl6dncyu91ld">
	<path d="M398.63879,200.00052l-36.78085-67.04428l-21.39929-73.41541l-73.41592-21.39961L200.50656,1.63915L200,1.36172
		l-67.04344,36.78001L59.54134,59.54083L38.14186,132.9552L1.63864,199.49394l-0.27743,0.50658l36.78072,67.04453l21.39942,73.41412
		l73.41489,21.39935l66.5372,36.50232L200,398.63828l67.04172-36.77924l73.41693-21.39987l21.39865-73.41309l36.50406-66.539
		L398.63879,200.00052z M365.49286,247.05289l-8.71042-29.88306l9.1412-16.66275l0.27744-0.50656l-9.4187-17.16881l8.71066-29.88382
		L379.20798,200L365.49286,247.05289z M380.30396,203.76021l4.81308,16.51221l-17.91296,32.6512l-0.61517-2.11052
		L380.30396,203.76021z M345.23193,316.56244l-15.07812,8.27203l23.57217-42.96695l1.92709-1.05731L345.23193,316.56244z
		 M326.71875,326.71893l-42.96701,23.57205l14.97098-27.28934l18.79968-5.47977l5.47961-18.79922l27.28915-14.97067
		L326.71875,326.71893z M324.83429,330.15393l-8.27231,15.07858l-35.75223,10.42108l1.05783-1.92813L324.83429,330.15393z
		 M200,379.20844l-47.05251-13.71506l29.88313-8.71054l16.66281,9.14133L200,366.2016l16.99451-9.32321l30.00282,8.63116
		L200,379.20844z M250.78233,366.59845l2.12843,0.61215l-32.63995,17.90656l-16.51068-4.81262L250.78233,366.59845z
		 M196.23987,380.30453l-16.51082,4.81262l-32.6515-17.91272l2.10976-0.61496L196.23987,380.30453z M73.28035,326.71893
		l-23.57236-42.96747l27.28947,14.97095l5.5274,18.96286l0.16235,0.55588l18.97235,5.45792l14.58871,26.59244L73.28035,326.71893z
		 M118.13261,353.72623l1.05744,1.92737l-35.75327-10.4216l-8.27197-15.07806L118.13261,353.72623z M44.34647,280.81021
		l1.92705,1.05704l23.57198,42.96747l-15.07735-8.27151L44.34647,280.81021z M20.79113,200l13.71512-47.05161l8.71046,29.8828
		l-9.14138,16.66275l-0.27743,0.50658l9.41875,17.16853l-8.71047,29.88255L20.79113,200z M33.41014,250.8118l-0.61529,2.11053
		l-17.9126-32.65094l4.81289-16.51118L33.41014,250.8118z M19.69515,196.23979l-4.8127-16.51067l17.91266-32.6512l0.6151,2.11028
		L19.69515,196.23979z M54.76814,83.43679l15.07735-8.27152l-23.57191,42.96748l-1.92711,1.05706L54.76814,83.43679z
		 M73.28048,73.28106l42.96799-23.57255l-14.97126,27.28985L82.4776,82.47812l-5.47981,18.79922l-27.28947,14.97119
		L73.28048,73.28106z M75.16482,69.84606l8.27197-15.07806l35.75333-10.4216l-1.05745,1.92762L75.16482,69.84606z
		 M247.05199,34.50637l-29.88293,8.71053l-16.66249-9.14106L200,33.79842l-17.16881,9.41874l-29.88318-8.71053l47.05251-13.71506
		L247.05199,34.50637z M326.71863,73.28106l23.57224,42.96696l-27.28891-14.97094l-5.47955-18.79896l-18.79993-5.48001
		l-14.97083-27.28909L326.71863,73.28106z M281.86737,46.27402l-1.05762-1.92762l35.75223,10.42109l8.27216,15.07832
		L281.86737,46.27402z M355.65308,119.1898l-1.92773-1.05783l-23.57178-42.96671l15.07837,8.27229L355.65308,119.1898z
		 M307.3237,307.32376l13.06888-7.16949l-4.56763,15.67017l-15.67062,4.56781L307.3237,307.32376z M297.29614,321.22531
		l-32.67236,9.5238l39.26505-21.54089L297.29614,321.22531z M309.20792,303.88928l21.54135-39.26608l-9.52362,32.673
		L309.20792,303.88928z M305.77304,305.7735l-50.48621,27.69702l-55.65616,16.22321l-53.29005-15.33029l-52.11431-28.59018
		l-27.69849-50.4884l-16.11463-55.28459l16.11527-55.28561L94.2267,94.2265l50.48685-27.69727l55.28619-16.1156l55.28697,16.1156
		l50.48666,27.69727l27.69757,50.48788l16.1149,55.28613l-16.11469,55.2851L305.77304,305.7735z M199.63536,351.88467
		l14.48891,4.16812L200,363.8013l-14.3116-7.85126L199.63536,351.88467z M183.07909,354.51843l-28.34781-15.55173l41.11916,11.82904
		L183.07909,354.51843z M203.4156,350.78265l43.34534-12.63461l-30.01869,16.46829L203.4156,350.78265z M92.67604,307.32376
		l7.5574,13.7757l-15.85081-4.55988l-4.77622-16.38583L92.67604,307.32376z M78.77334,297.29572l-9.52407-32.67432
		l21.54237,39.26764L78.77334,297.29572z M96.11072,309.20822l41.02835,22.5083l-34.05465-9.79688L96.11072,309.20822z
		 M48.22117,200l-4.17172,14.31178l-7.85126-14.31126l7.85152-14.3118L48.22117,200z M45.4811,183.07961l16.36997-29.83888
		l-12.53392,42.99933L45.4811,183.07961z M49.31721,203.76021l12.53405,43.00035l-16.37029-29.83939L49.31721,203.76021z
		 M92.67611,92.67624l-13.06875,7.1695l4.5677-15.67017l15.67049-4.56783L92.67611,92.67624z M102.70379,78.77468l32.67283-9.5238
		L96.11097,90.79177L102.70379,78.77468z M90.79183,96.11097l-21.54147,39.26585l9.52388-32.67303L90.79183,96.11097z
		 M199.99974,48.22169l-14.31126-4.17172L200,36.1987l14.31134,7.85127L199.99974,48.22169z M216.92059,45.4813l29.84023,16.37068
		l-43.00093-12.53444L216.92059,45.4813z M196.23961,49.31754l-43.00003,12.53418l29.83957-16.37016L196.23961,49.31754z
		 M307.32306,92.67572l-7.16907-13.06798l15.67096,4.56783l4.5675,15.66991L307.32306,92.67572z M321.22559,102.70379
		l9.52411,32.67481l-21.5423-39.26814L321.22559,102.70379z M303.88904,90.79177l-39.26431-21.54038l32.67175,9.52329
		L303.88904,90.79177z M350.68188,203.76071l3.83612,13.16046l-16.3696,29.83861L350.68188,203.76071z M351.77792,200.00052
		l4.1716-14.31154l7.85126,14.31154l-7.85132,14.31126L351.77792,200.00052z M350.68195,196.24031l-12.53366-42.99983
		l16.36978,29.83913L350.68195,196.24031z M335.42703,143.90469l-11.59195-39.76932l28.34024,15.54764l7.72693,14.08444
		l4.49475,15.42023l-9.04614,31.03465L335.42703,143.90469z M295.86496,76.16531l-39.76633-11.59144l-36.32025-19.92537
		l31.03368-9.04602l15.4185,4.49411l14.08688,7.72822L295.86496,76.16531z M149.18794,35.60274l31.03394,9.04601l-36.31905,19.92461
		l-39.76746,11.59169l15.54815-28.34101l14.08433-7.72668L149.18794,35.60274z M76.16473,104.13538l-11.59176,39.76752
		l-19.92486,36.31892l-9.04582-31.03362l4.49501-15.42075l7.72655-14.08393L76.16473,104.13538z M44.64811,219.77818
		l19.92461,36.31865l11.59162,39.76755l-28.34088-15.54791l-7.72585-14.08264l-4.49539-15.42227L44.64811,219.77818z
		 M104.51055,324.51929l41.01929,11.80026l34.69145,19.03195l-31.03387,9.04602l-15.41893-4.49463l-14.08516-7.72693
		L104.51055,324.51929z M219.61263,355.4422l36.48494-20.01581l39.767-11.59143l-15.54788,28.34048l-14.08612,7.72797
		l-15.45279,4.50412L219.61263,355.4422z M323.83514,295.86462l11.59149-39.76727l19.92435-36.31815l9.04584,31.03363
		l-4.49493,15.42099l-7.72617,14.08316L323.83514,295.86462z M366.58908,149.18768l0.61511-2.11052l17.91266,32.65092
		l-4.8129,16.5117L366.58908,149.18768z M365.77274,144.46803l-0.27963,0.95944l-0.91373-3.13469L365.77274,144.46803z
		 M355.6098,121.56722l0.8764,0.48062l0.69449,2.38281L355.6098,121.56722z M344.39874,80.57926l-16.12967-8.84898
		l-8.84879-16.12947l19.34091,5.63748L344.39874,80.57926z M277.95215,43.51334l0.48096,0.87673l-2.86459-1.57159
		L277.95215,43.51334z M254.57227,34.50637l0.9588-0.27948l2.17392,1.19243L254.57227,34.50637z M252.92188,32.7953
		l-2.10962,0.61497l-68.47394-19.95903L200,3.762L252.92188,32.7953z M179.72905,14.88283l16.51138,4.81264l-53.94701,15.72462
		L179.72905,14.88283z M121.56773,44.38956l0.48069-0.87621l2.3823-0.69435L121.56773,44.38956z M61.2388,61.23829l19.33969-5.63722
		l-8.8486,16.12947l-16.12863,8.84821L61.2388,61.23829z M43.51334,122.0481l0.87577-0.48037l-1.56986,2.86138L43.51334,122.0481z
		 M34.50618,145.42799l-0.27961-0.95944l1.1934-2.17526L34.50618,145.42799z M13.45098,182.3385L18.59911,200l-5.14832,17.66202
		l-9.6893-17.6615L13.45098,182.3385z M34.22631,255.53171l0.27981-0.95996l0.91423,3.13623L34.22631,255.53171z
		 M44.38905,278.43225l-0.8757-0.48035l-0.69403-2.38101L44.38905,278.43225z M55.60126,319.42126l16.12863,8.84821l8.8486,16.12946
		l-19.33969-5.63721L55.60126,319.42126z M122.04836,356.48691l-0.48068-0.87622l2.86273,1.57031L122.04836,356.48691z
		 M145.42715,365.49362l-0.95886,0.27948l-2.1741-1.19293L145.42715,365.49362z M182.33832,386.54877L200,381.40063
		l17.66156,5.14813L200,396.23801L182.33832,386.54877z M255.52882,365.77438l-0.96606-0.27792l3.14223-0.91577L255.52882,365.77438
		z M278.43253,355.60992l-0.48108,0.87698l-2.38385,0.69485L278.43253,355.60992z M338.7612,338.76172l-19.34091,5.63748
		l8.84906-16.12973l16.12939-8.84872L338.7612,338.76172z M356.48621,277.95215l-0.8757,0.48038l1.56961-2.86111
		L356.48621,277.95215z M365.49286,254.57329l0.27972,0.95944l-1.19357,2.17577L365.49286,254.57329z M386.54849,217.66304
		L381.39999,200l5.14832-17.66252l9.69022,17.66304L386.54849,217.66304z" fill="#292929" style=""></path>
</g>


<desc>Created with Snap</desc><defs></defs></g><g><g transform="matrix(1.024,0,0,-1.024,0,0)"><path d="M304 378Q310 391 321 397Q333 404 347 404Q359 404 370 398Q382 392 389 379Q418 325 441 269Q465 214 492 157Q517 238 536 313Q555 389 575 462Q582 488 594 496Q606 505 625 505Q642 505 653 495Q664 486 664 470Q664 457 657 424Q651 392 640 349Q630 307 617 259Q605 211 592 167Q580 123 569 87Q558 51 552 33Q544 10 533 -2Q522 -13 499 -13Q478 -13 464 3Q450 20 438 43Q434 51 425 70Q416 89 403 115Q391 141 376 172Q362 203 347 235Q332 203 316 172Q301 141 288 114Q275 88 265 69Q256 50 252 42Q240 19 226 2Q213 -14 191 -14Q156 -14 138 32Q131 50 120 85Q109 121 97 165Q85 209 73 256Q61 304 51 346Q42 388 36 420Q30 452 30 466Q30 483 39 494Q49 505 67 505Q87 505 99 496Q112 488 119 462Q139 389 158 313Q177 238 202 157Q224 205 246 257Q268 309 304 378ZM995 184Q960 184 921 189Q883 195 838 213Q847 152 888 121Q930 90 1008 90Q1036 90 1058 93Q1081 97 1098 101Q1115 106 1128 109Q1141 113 1152 113Q1166 113 1179 104Q1192 96 1192 76Q1192 51 1171 35Q1151 19 1121 9Q1092 0 1059 -4Q1026 -7 1001 -7Q942 -7 892 9Q843 25 807 57Q771 90 751 138Q731 186 731 250Q731 312 750 360Q770 408 804 441Q838 474 884 491Q931 508 985 508Q1027 508 1066 497Q1106 486 1136 464Q1167 442 1185 408Q1204 375 1204 330Q1204 290 1189 262Q1174 234 1146 217Q1119 200 1080 192Q1042 184 995 184ZM988 416Q961 416 936 409Q911 403 890 388Q870 374 856 350Q842 327 837 292Q875 275 911 268Q947 262 987 262Q1046 262 1074 276Q1103 291 1103 329Q1103 364 1076 390Q1050 416 988 416ZM1589 708Q1622 708 1655 702Q1689 697 1716 685Q1743 674 1760 657Q1778 641 1778 619Q1778 596 1766 584Q1754 572 1736 572Q1719 572 1706 577Q1693 583 1676 590Q1660 597 1637 602Q1614 608 1576 608Q1538 608 1503 588Q1469 569 1443 534Q1418 500 1403 453Q1388 406 1388 351Q1388 283 1405 234Q1423 185 1451 153Q1479 122 1514 106Q1550 91 1586 91Q1629 91 1658 100Q1687 109 1707 120Q1728 131 1743 140Q1758 149 1772 149Q1789 149 1799 139Q1809 130 1809 106Q1809 86 1793 65Q1778 45 1748 28Q1719 12 1678 1Q1637 -9 1586 -9Q1530 -9 1474 13Q1419 35 1375 78Q1332 122 1305 187Q1278 253 1278 340Q1278 427 1302 495Q1327 563 1369 610Q1412 658 1468 683Q1525 708 1589 708ZM2129 507Q2186 507 2231 489Q2276 472 2307 440Q2339 408 2356 362Q2373 316 2373 259Q2373 196 2353 146Q2334 96 2299 61Q2265 26 2217 7Q2170 -12 2114 -12Q2053 -12 2006 9Q1960 30 1928 66Q1897 102 1881 149Q1865 196 1865 248Q1865 305 1883 352Q1902 400 1936 434Q1971 469 2020 488Q2069 507 2129 507ZM2118 80Q2159 80 2188 94Q2217 109 2235 133Q2254 157 2262 187Q2271 218 2271 251Q2271 285 2262 314Q2254 344 2236 366Q2219 388 2191 400Q2164 413 2126 413Q2087 413 2058 400Q2029 387 2009 364Q1990 342 1980 311Q1970 280 1970 244Q1970 171 2007 125Q2045 80 2118 80ZM2879 2Q2859 2 2845 18Q2832 34 2827 55Q2815 44 2799 33Q2784 22 2764 12Q2744 3 2720 -3Q2696 -9 2668 -9Q2634 -9 2592 2Q2551 14 2514 42Q2478 71 2453 120Q2429 169 2429 243Q2429 306 2448 355Q2467 404 2501 437Q2536 471 2583 488Q2631 506 2687 506Q2735 506 2763 495Q2791 484 2807 469Q2807 496 2807 530Q2807 565 2807 597Q2808 630 2808 657Q2809 684 2810 698Q2812 732 2822 744Q2832 757 2857 757Q2883 757 2892 744Q2902 732 2904 701Q2905 688 2905 666Q2906 644 2906 618Q2906 592 2906 565Q2907 539 2907 517Q2907 496 2907 482Q2907 468 2907 468Q2907 366 2905 280Q2904 194 2904 143Q2906 132 2912 122Q2919 112 2926 102Q2934 92 2940 81Q2946 70 2946 58Q2946 44 2939 33Q2932 23 2921 16Q2911 9 2899 5Q2888 2 2879 2ZM2686 90Q2748 90 2781 127Q2814 164 2814 249Q2814 412 2685 412Q2655 412 2627 403Q2599 394 2577 375Q2556 356 2542 327Q2529 298 2529 258Q2529 225 2538 195Q2548 165 2567 141Q2587 118 2616 104Q2646 90 2686 90ZM3257 184Q3222 184 3183 189Q3145 195 3100 213Q3109 152 3150 121Q3192 90 3270 90Q3298 90 3320 93Q3343 97 3360 101Q3377 106 3390 109Q3403 113 3414 113Q3428 113 3441 104Q3454 96 3454 76Q3454 51 3433 35Q3413 19 3383 9Q3354 0 3321 -4Q3288 -7 3263 -7Q3204 -7 3154 9Q3105 25 3069 57Q3033 90 3013 138Q2993 186 2993 250Q2993 312 3012 360Q3032 408 3066 441Q3100 474 3146 491Q3193 508 3247 508Q3289 508 3328 497Q3368 486 3398 464Q3429 442 3447 408Q3466 375 3466 330Q3466 290 3451 262Q3436 234 3408 217Q3381 200 3342 192Q3304 184 3257 184ZM3250 416Q3223 416 3198 409Q3173 403 3152 388Q3132 374 3118 350Q3104 327 3099 292Q3137 275 3173 268Q3209 262 3249 262Q3308 262 3336 276Q3365 291 3365 329Q3365 364 3338 390Q3312 416 3250 416ZM3956 47Q3924 91 3895 134Q3867 178 3834 230Q3802 282 3760 345Q3719 409 3661 494Q3661 419 3661 359Q3661 300 3660 249Q3659 198 3658 153Q3657 108 3655 63Q3654 39 3650 26Q3647 13 3641 6Q3635 -1 3627 -3Q3620 -4 3610 -4Q3592 -4 3580 8Q3568 21 3566 62Q3561 172 3560 282Q3560 393 3560 511Q3560 578 3561 616Q3563 654 3568 673Q3574 692 3583 697Q3593 702 3609 702Q3625 702 3651 677Q3677 653 3708 613Q3739 573 3774 521Q3810 469 3845 414Q3880 359 3912 305Q3945 251 3972 207Q3971 254 3971 310Q3971 367 3971 436Q3971 515 3972 566Q3973 618 3977 648Q3982 678 3992 690Q4002 702 4020 702Q4037 702 4050 691Q4063 680 4065 640Q4067 604 4068 576Q4069 548 4070 520Q4071 493 4071 463Q4071 434 4071 397Q4071 352 4071 311Q4071 270 4070 230Q4069 190 4068 149Q4067 108 4065 63Q4064 39 4060 26Q4057 13 4051 6Q4045 -1 4037 -3Q4030 -4 4020 -4Q4003 -4 3991 6Q3979 16 3956 47ZM4602 -4Q4586 -4 4576 1Q4567 7 4562 16Q4557 25 4555 37Q4553 50 4552 64Q4527 33 4487 12Q4448 -9 4387 -9Q4348 -9 4307 2Q4267 14 4234 42Q4201 71 4180 119Q4159 167 4159 240Q4159 297 4173 347Q4187 397 4215 434Q4244 472 4287 494Q4330 516 4388 516Q4439 516 4479 497Q4519 479 4551 437Q4551 449 4552 461Q4553 474 4557 484Q4562 495 4572 501Q4582 508 4599 508Q4614 508 4627 496Q4640 484 4642 444Q4645 391 4646 349Q4648 307 4648 262Q4648 207 4647 161Q4646 115 4642 63Q4640 40 4636 26Q4633 13 4628 6Q4623 0 4616 -2Q4609 -4 4602 -4ZM4548 250Q4548 302 4532 335Q4517 368 4493 386Q4470 405 4443 412Q4416 419 4393 419Q4357 419 4331 406Q4306 393 4290 370Q4274 348 4266 317Q4259 287 4259 251Q4259 163 4297 121Q4336 79 4402 79Q4441 79 4468 92Q4496 106 4513 129Q4531 152 4539 183Q4548 215 4548 250ZM4772 62Q4770 99 4768 146Q4767 194 4767 251Q4767 322 4768 372Q4769 423 4773 455Q4778 488 4788 503Q4798 519 4816 519Q4833 519 4846 507Q4859 495 4861 455Q4867 350 4867 252Q4867 202 4865 158Q4863 115 4861 63Q4860 39 4856 26Q4853 13 4847 6Q4841 -1 4833 -3Q4826 -4 4816 -4Q4798 -4 4786 8Q4774 21 4772 62ZM4817 700Q4840 700 4859 682Q4879 664 4879 639Q4879 615 4859 597Q4839 580 4814 580Q4793 580 4774 597Q4756 615 4756 641Q4756 665 4774 682Q4793 700 4817 700ZM4996 61Q4992 96 4991 146Q4990 196 4990 267Q4990 337 4990 380Q4991 423 4996 456Q5001 497 5011 509Q5022 521 5039 521Q5051 521 5060 519Q5070 517 5077 510Q5085 504 5089 492Q5093 480 5093 459Q5093 455 5094 451Q5094 447 5094 442Q5095 438 5095 432Q5122 466 5156 490Q5191 514 5235 514Q5294 514 5294 465Q5294 447 5286 435Q5279 423 5265 415Q5252 408 5234 404Q5217 400 5196 396Q5164 390 5136 373Q5108 357 5098 332Q5098 313 5098 304Q5099 295 5099 289Q5100 283 5100 276Q5100 269 5100 254Q5100 203 5098 158Q5096 114 5094 62Q5093 38 5088 25Q5084 12 5077 5Q5071 -2 5063 -4Q5055 -5 5047 -5Q5019 -5 5009 7Q5000 20 4996 61ZM5599 507Q5656 507 5701 489Q5746 472 5777 440Q5809 408 5826 362Q5843 316 5843 259Q5843 196 5823 146Q5804 96 5769 61Q5735 26 5687 7Q5640 -12 5584 -12Q5523 -12 5476 9Q5430 30 5398 66Q5367 102 5351 149Q5335 196 5335 248Q5335 305 5353 352Q5372 400 5406 434Q5441 469 5490 488Q5539 507 5599 507ZM5588 80Q5629 80 5658 94Q5687 109 5705 133Q5724 157 5732 187Q5741 218 5741 251Q5741 285 5732 314Q5724 344 5706 366Q5689 388 5661 400Q5634 413 5596 413Q5557 413 5528 400Q5499 387 5479 364Q5460 342 5450 311Q5440 280 5440 244Q5440 171 5477 125Q5515 80 5588 80ZM6042 654Q6042 594 6038 528Q6035 463 6030 401Q6043 428 6064 447Q6085 467 6110 479Q6136 491 6164 497Q6192 503 6218 503Q6263 503 6302 486Q6342 470 6371 438Q6401 407 6417 360Q6434 314 6434 254Q6434 196 6417 148Q6400 100 6366 65Q6333 31 6283 12Q6234 -7 6170 -7Q6083 -7 6033 28Q5984 63 5960 121Q5936 180 5930 256Q5925 332 5925 415Q5925 499 5928 567Q5931 635 5937 677Q5943 715 5957 731Q5971 747 5994 747Q6011 747 6021 739Q6031 732 6035 719Q6040 706 6041 689Q6042 673 6042 654ZM6190 404Q6161 404 6134 394Q6108 385 6087 365Q6067 345 6055 314Q6043 284 6043 241Q6043 165 6080 125Q6118 86 6181 86Q6207 86 6234 93Q6261 101 6283 119Q6305 138 6319 169Q6333 200 6333 246Q6333 287 6321 317Q6310 347 6290 366Q6270 386 6244 395Q6218 404 6190 404ZM6530 62Q6528 99 6526 146Q6525 194 6525 251Q6525 322 6526 372Q6527 423 6531 455Q6536 488 6546 503Q6556 519 6574 519Q6591 519 6604 507Q6617 495 6619 455Q6625 350 6625 252Q6625 202 6623 158Q6621 115 6619 63Q6618 39 6614 26Q6611 13 6605 6Q6599 -1 6591 -3Q6584 -4 6574 -4Q6556 -4 6544 8Q6532 21 6530 62ZM6575 700Q6598 700 6617 682Q6637 664 6637 639Q6637 615 6617 597Q6597 580 6572 580Q6551 580 6532 597Q6514 615 6514 641Q6514 665 6532 682Q6551 700 6575 700Z" fill="#292929" style=""></path></g></g><g transform="matrix(0.75,0,0,0.75,-798.9763,905.216)"><g transform="matrix(1.024,0,0,-1.024,0,0)"><path d="M153 47L192 47Q202 47 208 40Q215 33 215 23Q215 13 208 6Q202 0 192 0L153 0Q72 0 72 65L72 703L6 703Q-4 703 -11 709Q-17 716 -17 726Q-17 736 -11 743Q-4 750 6 750L99 750Q110 750 118 743Q126 736 126 726L126 66Q126 47 153 47ZM572 220Q569 274 540 306Q512 338 458 338Q405 338 369 305Q333 273 324 220L572 220ZM574 96Q581 108 590 108Q599 108 608 103Q617 99 620 89Q624 80 619 72Q568 -10 457 -10Q369 -10 318 46Q268 103 268 189Q268 275 320 329Q372 384 457 384Q542 384 583 333Q625 282 625 197Q625 174 599 174L322 173Q326 111 362 73Q399 36 457 36Q535 36 574 96ZM980 136L980 155Q914 173 867 173Q821 173 791 155Q762 137 762 104Q762 72 781 54Q800 36 833 36Q925 36 980 136ZM1060 47L1099 47Q1109 47 1115 40Q1122 33 1122 23Q1122 13 1115 6Q1109 0 1099 0L1055 0Q1019 0 999 16Q980 32 980 61Q980 66 981 72Q928 -10 827 -10Q771 -10 739 20Q708 50 708 103Q708 157 750 187Q793 218 856 218Q920 218 980 197L980 266Q980 314 945 328Q918 338 870 338Q823 338 783 322L783 259Q783 249 775 242Q767 236 756 236Q745 236 737 242Q729 249 729 259L729 335Q729 348 742 355Q791 384 872 384Q953 384 993 357Q1033 331 1033 266L1033 66Q1033 47 1060 47ZM1145 374L1196 374Q1259 374 1261 306Q1315 384 1389 384Q1431 384 1460 368Q1474 360 1474 347L1474 263Q1474 253 1466 246Q1458 240 1447 240Q1436 240 1428 246Q1420 253 1420 263L1420 333Q1407 338 1381 338Q1355 338 1322 313Q1289 289 1265 241L1265 13Q1265 3 1257 -4Q1249 -10 1238 -10Q1227 -10 1219 -4Q1211 3 1211 13L1211 308Q1211 327 1191 327L1145 327Q1135 327 1128 333Q1122 340 1122 350Q1122 360 1128 367Q1135 374 1145 374ZM1568 327L1521 327Q1511 327 1504 333Q1498 340 1498 350Q1498 360 1504 367Q1511 374 1521 374L1575 374Q1637 374 1637 306Q1697 384 1788 384Q1842 384 1876 356Q1911 329 1911 276L1911 66Q1911 47 1938 47L1977 47Q1987 47 1993 40Q2000 33 2000 23Q2000 13 1993 6Q1987 0 1977 0L1938 0Q1857 0 1857 65L1857 276Q1857 306 1838 322Q1820 338 1787 338Q1695 338 1641 242L1641 13Q1641 3 1633 -4Q1625 -10 1614 -10Q1603 -10 1595 -4Q1587 3 1587 13L1587 308Q1587 327 1568 327ZM2267 39L2267 120Q2267 130 2275 136Q2283 143 2294 143Q2305 143 2313 136Q2321 130 2321 120L2321 52Q2369 36 2421 36Q2535 36 2535 100Q2535 148 2428 171Q2423 172 2406 176Q2389 180 2378 182Q2367 185 2341 194Q2316 204 2305 214Q2275 241 2275 280Q2275 320 2301 344Q2328 369 2360 376Q2392 384 2430 384Q2500 384 2559 357Q2577 349 2577 335L2577 258Q2577 248 2569 241Q2561 235 2550 235Q2539 235 2531 241Q2523 248 2523 258L2523 322Q2483 338 2430 338Q2328 338 2328 280Q2328 259 2341 251Q2355 243 2361 239Q2368 235 2385 231Q2409 225 2434 220Q2459 215 2475 211Q2491 207 2515 197Q2540 188 2554 176Q2589 148 2589 103Q2589 58 2559 31Q2530 5 2495 -3Q2461 -10 2421 -10Q2342 -10 2285 16Q2267 24 2267 39ZM2866 36Q2927 36 2965 78Q3004 120 3004 186Q3004 253 2965 295Q2927 338 2866 338Q2805 338 2766 295Q2728 253 2728 186Q2728 120 2766 78Q2805 36 2866 36ZM2727 45Q2674 101 2674 187Q2674 273 2728 328Q2782 384 2866 384Q2950 384 3003 328Q3057 273 3057 186Q3057 100 3003 45Q2950 -10 2865 -10Q2781 -10 2727 45ZM3127 -226Q3116 -229 3108 -229Q3100 -229 3093 -223Q3087 -217 3087 -207Q3087 -189 3110 -183Q3162 -167 3182 -124Q3202 -80 3202 -6L3202 327L3141 327Q3131 327 3124 333Q3118 340 3118 350Q3118 360 3124 367Q3131 374 3141 374L3202 374L3202 600Q3202 687 3238 723Q3275 760 3351 760Q3427 760 3481 727Q3493 720 3493 709L3493 623Q3493 613 3485 606Q3477 600 3466 600Q3455 600 3447 606Q3439 613 3439 623L3439 698Q3404 714 3352 714Q3300 714 3277 687Q3255 661 3255 599L3255 374L3429 374Q3439 374 3445 367Q3452 360 3452 350Q3452 340 3445 333Q3439 327 3429 327L3255 327L3255 -6Q3255 -95 3228 -148Q3201 -201 3127 -226ZM3793 64Q3801 69 3811 67Q3822 65 3826 58Q3830 52 3830 47Q3830 32 3819 25Q3759 -10 3690 -10Q3621 -10 3591 18Q3561 47 3561 113L3561 327L3505 327Q3495 327 3488 333Q3482 340 3482 350Q3482 360 3488 367Q3495 374 3505 374L3561 374L3561 517Q3561 527 3569 533Q3577 540 3588 540Q3599 540 3607 533Q3615 527 3615 517L3615 374L3783 374Q3793 374 3799 367Q3806 360 3806 350Q3806 340 3799 333Q3793 327 3783 327L3615 327L3615 113Q3615 71 3632 53Q3650 36 3697 36Q3745 36 3793 64ZM4419 349L4289 9Q4282 -10 4262 -10Q4243 -10 4238 8L4145 284L4052 8Q4047 -10 4027 -10Q4008 -10 4001 8L3870 349Q3868 354 3868 359Q3868 374 3886 381Q3892 384 3899 384Q3915 382 3920 370L4025 90L4119 368Q4124 384 4144 384Q4165 384 4170 368L4265 89L4370 370Q4376 385 4385 385Q4395 385 4403 381Q4421 374 4421 359Q4421 354 4419 349ZM4762 136L4762 155Q4696 173 4649 173Q4603 173 4573 155Q4544 137 4544 104Q4544 72 4563 54Q4582 36 4615 36Q4707 36 4762 136ZM4842 47L4881 47Q4891 47 4897 40Q4904 33 4904 23Q4904 13 4897 6Q4891 0 4881 0L4837 0Q4801 0 4781 16Q4762 32 4762 61Q4762 66 4763 72Q4710 -10 4609 -10Q4553 -10 4521 20Q4490 50 4490 103Q4490 157 4532 187Q4575 218 4638 218Q4702 218 4762 197L4762 266Q4762 314 4727 328Q4700 338 4652 338Q4605 338 4565 322L4565 259Q4565 249 4557 242Q4549 236 4538 236Q4527 236 4519 242Q4511 249 4511 259L4511 335Q4511 348 4524 355Q4573 384 4654 384Q4735 384 4775 357Q4815 331 4815 266L4815 66Q4815 47 4842 47ZM4927 374L4978 374Q5041 374 5043 306Q5097 384 5171 384Q5213 384 5242 368Q5256 360 5256 347L5256 263Q5256 253 5248 246Q5240 240 5229 240Q5218 240 5210 246Q5202 253 5202 263L5202 333Q5189 338 5163 338Q5137 338 5104 313Q5071 289 5047 241L5047 13Q5047 3 5039 -4Q5031 -10 5020 -10Q5009 -10 5001 -4Q4993 3 4993 13L4993 308Q4993 327 4973 327L4927 327Q4917 327 4910 333Q4904 340 4904 350Q4904 360 4910 367Q4917 374 4927 374ZM5620 220Q5617 274 5588 306Q5560 338 5506 338Q5453 338 5417 305Q5381 273 5372 220L5620 220ZM5622 96Q5629 108 5638 108Q5647 108 5656 103Q5665 99 5668 89Q5672 80 5667 72Q5616 -10 5505 -10Q5417 -10 5366 46Q5316 103 5316 189Q5316 275 5368 329Q5420 384 5505 384Q5590 384 5631 333Q5673 282 5673 197Q5673 174 5647 174L5370 173Q5374 111 5410 73Q5447 36 5505 36Q5583 36 5622 96ZM6154 338Q6097 338 6063 297Q6029 256 6029 186Q6029 116 6062 76Q6096 36 6154 36Q6238 36 6288 131L6288 278Q6262 303 6225 320Q6189 338 6154 338ZM6288 331L6288 703L6222 703Q6212 703 6205 709Q6199 716 6199 726Q6199 736 6205 743Q6212 750 6222 750L6315 750Q6326 750 6334 743Q6342 736 6342 726L6342 66Q6342 47 6362 47L6408 47Q6418 47 6424 40Q6431 34 6431 24Q6431 14 6424 7Q6418 0 6408 0L6355 0Q6290 0 6292 71Q6270 37 6234 13Q6199 -10 6154 -10Q6065 -10 6020 47Q5976 104 5976 188Q5976 272 6022 328Q6069 384 6150 384Q6231 384 6288 331ZM6786 220Q6783 274 6754 306Q6726 338 6672 338Q6619 338 6583 305Q6547 273 6538 220L6786 220ZM6788 96Q6795 108 6804 108Q6813 108 6822 103Q6831 99 6834 89Q6838 80 6833 72Q6782 -10 6671 -10Q6583 -10 6532 46Q6482 103 6482 189Q6482 275 6534 329Q6586 384 6671 384Q6756 384 6797 333Q6839 282 6839 197Q6839 174 6813 174L6536 173Q6540 111 6576 73Q6613 36 6671 36Q6749 36 6788 96ZM7095 66L7235 370Q7242 385 7251 385Q7275 385 7284 367Q7286 362 7286 357Q7286 353 7284 349L7120 6Q7112 -10 7094 -10Q7077 -10 7069 6L6904 349Q6902 353 6902 358Q6902 373 6920 381Q6928 385 6937 385Q6947 385 6954 370L7095 66ZM7654 220Q7651 274 7622 306Q7594 338 7540 338Q7487 338 7451 305Q7415 273 7406 220L7654 220ZM7656 96Q7663 108 7672 108Q7681 108 7690 103Q7699 99 7702 89Q7706 80 7701 72Q7650 -10 7539 -10Q7451 -10 7400 46Q7350 103 7350 189Q7350 275 7402 329Q7454 384 7539 384Q7624 384 7665 333Q7707 282 7707 197Q7707 174 7681 174L7404 173Q7408 111 7444 73Q7481 36 7539 36Q7617 36 7656 96ZM7901 47L7940 47Q7950 47 7956 40Q7963 33 7963 23Q7963 13 7956 6Q7950 0 7940 0L7901 0Q7820 0 7820 65L7820 703L7754 703Q7744 703 7737 709Q7731 716 7731 726Q7731 736 7737 743Q7744 750 7754 750L7847 750Q7858 750 7866 743Q7874 736 7874 726L7874 66Q7874 47 7901 47ZM8207 36Q8268 36 8306 78Q8345 120 8345 186Q8345 253 8306 295Q8268 338 8207 338Q8146 338 8107 295Q8069 253 8069 186Q8069 120 8107 78Q8146 36 8207 36ZM8068 45Q8015 101 8015 187Q8015 273 8069 328Q8123 384 8207 384Q8291 384 8344 328Q8398 273 8398 186Q8398 100 8344 45Q8291 -10 8206 -10Q8122 -10 8068 45ZM8585 303Q8637 384 8723 384Q8810 384 8855 328Q8901 273 8901 188Q8901 103 8854 46Q8808 -10 8725 -10Q8643 -10 8589 47L8589 -206Q8589 -216 8581 -223Q8573 -229 8562 -229Q8551 -229 8543 -223Q8535 -216 8535 -206L8535 308Q8535 327 8516 327L8469 327Q8459 327 8452 333Q8446 340 8446 350Q8446 360 8452 367Q8459 374 8469 374L8523 374Q8587 374 8585 303ZM8589 243L8589 96Q8653 36 8717 36Q8781 36 8814 78Q8848 120 8848 189Q8848 258 8815 298Q8782 338 8724 338Q8639 338 8589 243ZM9580 276L9580 66Q9580 47 9607 47L9646 47Q9656 47 9662 40Q9669 33 9669 23Q9669 13 9662 6Q9656 0 9646 0L9607 0Q9526 0 9526 65L9526 276Q9526 338 9468 338Q9390 338 9339 251L9339 13Q9339 3 9331 -4Q9323 -10 9312 -10Q9301 -10 9293 -4Q9285 3 9285 13L9285 276Q9285 338 9227 338Q9182 338 9151 315Q9121 292 9093 243L9093 13Q9093 3 9085 -4Q9077 -10 9066 -10Q9055 -10 9047 -4Q9039 3 9039 13L9039 308Q9039 327 9020 327L8973 327Q8963 327 8956 333Q8950 340 8950 350Q8950 360 8956 367Q8963 374 8973 374L9027 374Q9089 374 9089 306Q9120 346 9151 365Q9183 384 9228 384Q9314 384 9334 312Q9364 348 9395 366Q9426 384 9473 384Q9520 384 9550 356Q9580 329 9580 276ZM10016 220Q10013 274 9984 306Q9956 338 9902 338Q9849 338 9813 305Q9777 273 9768 220L10016 220ZM10018 96Q10025 108 10034 108Q10043 108 10052 103Q10061 99 10064 89Q10068 80 10063 72Q10012 -10 9901 -10Q9813 -10 9762 46Q9712 103 9712 189Q9712 275 9764 329Q9816 384 9901 384Q9986 384 10027 333Q10069 282 10069 197Q10069 174 10043 174L9766 173Q9770 111 9806 73Q9843 36 9901 36Q9979 36 10018 96ZM10186 327L10139 327Q10129 327 10122 333Q10116 340 10116 350Q10116 360 10122 367Q10129 374 10139 374L10193 374Q10255 374 10255 306Q10315 384 10406 384Q10460 384 10494 356Q10529 329 10529 276L10529 66Q10529 47 10556 47L10595 47Q10605 47 10611 40Q10618 33 10618 23Q10618 13 10611 6Q10605 0 10595 0L10556 0Q10475 0 10475 65L10475 276Q10475 306 10456 322Q10438 338 10405 338Q10313 338 10259 242L10259 13Q10259 3 10251 -4Q10243 -10 10232 -10Q10221 -10 10213 -4Q10205 3 10205 13L10205 308Q10205 327 10186 327ZM10950 64Q10958 69 10968 67Q10979 65 10983 58Q10987 52 10987 47Q10987 32 10976 25Q10916 -10 10847 -10Q10778 -10 10748 18Q10718 47 10718 113L10718 327L10662 327Q10652 327 10645 333Q10639 340 10639 350Q10639 360 10645 367Q10652 374 10662 374L10718 374L10718 517Q10718 527 10726 533Q10734 540 10745 540Q10756 540 10764 533Q10772 527 10772 517L10772 374L10940 374Q10950 374 10956 367Q10963 360 10963 350Q10963 340 10956 333Q10950 327 10940 327L10772 327L10772 113Q10772 71 10789 53Q10807 36 10854 36Q10902 36 10950 64Z" fill="#292929" style=""></path></g></g></g></svg>